<svg width="40" height="40" viewBox="0 0 40 40" fill="none" xmlns="http://www.w3.org/2000/svg">
<path d="M20.0001 36.6667C21.8334 36.6667 23.3334 35.1667 23.3334 33.3333H16.6667C16.6667 35.1667 18.1667 36.6667 20.0001 36.6667ZM30.0001 26.6667V18.3333C30.0001 13.2167 27.2834 8.93332 22.5001 7.79999V6.66666C22.5001 5.28332 21.3834 4.16666 20.0001 4.16666C18.6167 4.16666 17.5001 5.28332 17.5001 6.66666V7.79999C12.7334 8.93332 10.0001 13.2 10.0001 18.3333V26.6667L6.66675 30V31.6667H33.3334V30L30.0001 26.6667ZM26.6667 28.3333H13.3334V18.3333C13.3334 14.2 15.8501 10.8333 20.0001 10.8333C24.1501 10.8333 26.6667 14.2 26.6667 18.3333V28.3333Z" fill="white"/>
</svg>
