<svg width="102" height="100" viewBox="0 0 102 100" fill="none" xmlns="http://www.w3.org/2000/svg">
<ellipse cx="51.1071" cy="50" rx="50.2232" ry="50" fill="#54BCEB"/>
<circle cx="51" cy="50" r="25" fill="white"/>
<path d="M72 26H59.46C58.2 22.52 54.9 20 51 20C47.1 20 43.8 22.52 42.54 26H30C26.7 26 24 28.7 24 32V74C24 77.3 26.7 80 30 80H72C75.3 80 78 77.3 78 74V32C78 28.7 75.3 26 72 26ZM51 26C52.65 26 54 27.35 54 29C54 30.65 52.65 32 51 32C49.35 32 48 30.65 48 29C48 27.35 49.35 26 51 26ZM57 68H36V62H57V68ZM66 56H36V50H66V56ZM66 44H36V38H66V44Z" fill="#F9D978"/>
</svg>
